# xmcd
#
# Track frame offsets: 
#        150
#        21900
#        44492
#        64582
#        83422
#        105032
#        123110
#        146792
#        166880
#        196255
#        215815
#
# Disc length: 3230 seconds
#
# Revision: 1
# Processed by: cddbd v1.5.2PL0 Copyright (c) Steve Scherf et al.
# Submitted via: ExactAudioCopy v0.99pb4
#
DISCID=8d0c9c0b
DTITLE=Iron Savior - Battering Ram
DYEAR=2004
DGENRE=Power Metal
TTITLE0=Battering Ram
TTITLE1=Stand Against The King
TTITLE2=Tyranny Of Steel
TTITLE3=Time Will Tell
TTITLE4=Wings Of Deliverance
TTITLE5=Break The Curse
TTITLE6=Riding Free
TTITLE7=Starchaser
TTITLE8=Machine World
TTITLE9=H.M. Powered Man
TTITLE10=Living On A Fault Line
EXTD=YEAR: 2004
EXTT0=
EXTT1=
EXTT2=
EXTT3=
EXTT4=
EXTT5=
EXTT6=
EXTT7=
EXTT8=
EXTT9=
EXTT10=
PLAYORDER=
